<svg width="54" height="46" viewBox="0 0 54 46" fill="none" xmlns="http://www.w3.org/2000/svg">
<path d="M47.25 22.0417C47.2577 24.5714 46.5639 27.0669 45.225 29.325C43.6375 32.0308 41.1969 34.3067 38.1768 35.8978C35.1566 37.4888 31.676 38.3322 28.125 38.3333C25.1553 38.3399 22.2258 37.7489 19.575 36.6083L6.75 40.25L11.025 29.325C9.6861 27.0669 8.99226 24.5714 9 22.0417C9.00137 19.0167 9.99138 16.0518 11.8591 13.4791C13.7269 10.9063 16.3986 8.82734 19.575 7.475C22.2258 6.33445 25.1553 5.74341 28.125 5.75H29.25C33.9398 5.9704 38.3693 7.65663 41.6906 10.4858C45.0118 13.315 46.9913 17.0883 47.25 21.0833V22.0417Z" stroke="black" stroke-width="2" stroke-linecap="round" stroke-linejoin="round"/>
</svg>
