<svg width="50" height="46" viewBox="0 0 50 46" fill="none" xmlns="http://www.w3.org/2000/svg">
<g clip-path="url(#clip0_258_708)">
<path d="M27.0833 46H22.9167C21.1937 46 19.7917 44.7101 19.7917 43.125V39.5562C18.4582 39.2016 17.172 38.7107 15.9573 38.0928L13.2135 40.618C12.0323 41.7047 9.975 41.7028 8.79375 40.618L5.84687 37.9078C5.25625 37.3654 4.93125 36.6428 4.93125 35.8752C4.93125 35.1076 5.25625 34.385 5.84687 33.8426L8.59167 31.3164C7.91997 30.1998 7.3871 29.0171 7.00312 27.7907H3.125C1.40208 27.7907 0 26.5008 0 24.9157V21.0824C0 20.3138 0.325 19.5922 0.914583 19.0497C1.20427 18.782 1.54877 18.5696 1.92817 18.4251C2.30756 18.2805 2.71434 18.2065 3.125 18.2074H7.00417C7.38958 16.9826 7.92083 15.801 8.59375 14.6817L5.85 12.1565C5.26466 11.6171 4.9359 10.886 4.9359 10.1238C4.9359 9.36164 5.26466 8.6306 5.85 8.09121L8.79583 5.38008C9.97604 4.29525 12.0344 4.29333 13.2156 5.38008L15.9604 7.90529C17.1742 7.28816 18.4593 6.79796 19.7917 6.44383V2.875C19.7917 1.28992 21.1937 0 22.9167 0H27.0833C28.8062 0 30.2083 1.28992 30.2083 2.875V6.44383C31.5417 6.79842 32.825 7.28812 34.0396 7.90529L36.7844 5.38008C37.9656 4.29525 40.0229 4.29333 41.2042 5.38008L44.151 8.09025C44.7417 8.63267 45.0667 9.35525 45.0667 10.1229C45.0667 10.8905 44.7417 11.6131 44.151 12.1555L41.4073 14.6807C42.0792 15.7977 42.6124 16.9807 42.9969 18.2074H46.875C48.5979 18.2074 50 19.4973 50 21.0824V24.9157C50 25.6843 49.675 26.4059 49.0854 26.9483C48.4958 27.4907 47.7104 27.7907 46.875 27.7907H42.9958C42.6107 29.0171 42.0775 30.2001 41.4062 31.3174L44.15 33.8426C44.7353 34.382 45.0641 35.113 45.0641 35.8752C45.0641 36.6374 44.7353 37.3684 44.15 37.9078L41.2042 40.619C40.0229 41.7047 37.9656 41.7047 36.7844 40.619L34.0417 38.0938C32.8275 38.7112 31.5421 39.2017 30.2094 39.5562V43.125C30.208 43.8873 29.8782 44.618 29.2922 45.1569C28.7062 45.6958 27.9119 45.999 27.0833 46ZM15.7885 35.9356C15.975 35.9356 16.1635 35.9816 16.3312 36.0755C17.8012 36.9034 19.4029 37.5149 21.0781 37.8877C21.3053 37.9382 21.5074 38.0576 21.6519 38.2265C21.7964 38.3955 21.875 38.6042 21.875 38.8192V43.125C21.875 43.654 22.3427 44.0833 22.9167 44.0833H27.0833C27.6573 44.0833 28.125 43.654 28.125 43.125V38.8192C28.125 38.6042 28.2036 38.3955 28.3481 38.2265C28.4926 38.0576 28.6947 37.9382 28.9219 37.8877C30.5967 37.5151 32.198 36.904 33.6677 36.0765C34.0802 35.8455 34.6073 35.904 34.9479 36.2164L38.2583 39.2629C38.649 39.6213 39.3406 39.6232 39.7323 39.2629L42.6781 36.5518C42.8734 36.3721 42.9831 36.1284 42.9831 35.8742C42.9831 35.6201 42.8734 35.3764 42.6781 35.1967L39.3667 32.1502C39.2013 31.998 39.0964 31.7992 39.0688 31.5855C39.0412 31.3719 39.0925 31.1559 39.2146 30.9724C40.1139 29.6203 40.7779 28.1471 41.1823 26.6062C41.237 26.3971 41.3666 26.2109 41.5503 26.0778C41.7339 25.9446 41.961 25.8722 42.1948 25.8721H46.875C47.0118 25.8726 47.1473 25.8483 47.2738 25.8004C47.4003 25.7525 47.5152 25.6821 47.6121 25.5932C47.7089 25.5044 47.7856 25.3987 47.8379 25.2825C47.8902 25.1662 47.9169 25.0415 47.9167 24.9157V21.0824C47.9167 20.5534 47.449 20.124 46.875 20.124H42.1948C41.9609 20.1242 41.7338 20.0518 41.5501 19.9186C41.3664 19.7854 41.2368 19.5992 41.1823 19.39C40.778 17.849 40.1141 16.3758 39.2146 15.0238C39.0925 14.8403 39.0412 14.6243 39.0688 14.4106C39.0964 14.197 39.2013 13.9981 39.3667 13.846L42.6781 10.7995C42.8719 10.6202 42.9833 10.374 42.9833 10.1219C42.9833 9.86987 42.8719 9.62262 42.6781 9.44437L39.7312 6.73421C39.5324 6.56035 39.2686 6.46341 38.9943 6.46341C38.72 6.46341 38.4561 6.56035 38.2573 6.73421L34.9458 9.78075C34.781 9.93365 34.5647 10.0307 34.3322 10.0561C34.0998 10.0815 33.8648 10.0338 33.6656 9.92067C32.1966 9.09349 30.596 8.48268 28.9219 8.11038C28.6948 8.06039 28.4927 7.94147 28.3481 7.77281C28.2035 7.60415 28.1249 7.39559 28.125 7.18079V2.875C28.125 2.346 27.6573 1.91667 27.0833 1.91667H22.9167C22.3427 1.91667 21.875 2.346 21.875 2.875V7.18079C21.875 7.39579 21.7964 7.60454 21.6519 7.77349C21.5074 7.94244 21.3053 8.06177 21.0781 8.11229C19.4033 8.48454 17.802 9.09535 16.3323 9.92258C16.133 10.0349 15.8984 10.0823 15.6663 10.0569C15.4342 10.0315 15.2182 9.93488 15.0531 9.78267L11.7417 6.73612C11.5428 6.56227 11.279 6.46533 11.0047 6.46533C10.7304 6.46533 10.4665 6.56227 10.2677 6.73612L7.32292 9.44629C7.12763 9.62601 7.01793 9.86972 7.01793 10.1238C7.01793 10.3779 7.12763 10.6217 7.32292 10.8014L10.6344 13.8479C10.7997 14 10.9047 14.1989 10.9323 14.4126C10.9598 14.6262 10.9085 14.8422 10.7865 15.0257C9.88713 16.3775 9.2232 17.8503 8.81875 19.3909C8.76403 19.6001 8.63441 19.7862 8.45076 19.9194C8.2671 20.0525 8.04008 20.1249 7.80625 20.125H3.125C2.98814 20.1245 2.85252 20.1489 2.72596 20.1968C2.5994 20.2447 2.4844 20.3152 2.38757 20.4042C2.29075 20.4932 2.21402 20.5989 2.1618 20.7153C2.10959 20.8317 2.08292 20.9565 2.08333 21.0824V24.9157C2.08333 25.4447 2.55104 25.874 3.125 25.874H7.80521C8.28646 25.874 8.70521 26.1769 8.81771 26.6081C9.22232 28.1486 9.88624 29.6215 10.7854 30.9733C10.9074 31.1569 10.9588 31.3728 10.9312 31.5865C10.9036 31.8001 10.7987 31.999 10.6333 32.1511L7.32187 35.1986C7.12812 35.3778 7.01667 35.6241 7.01667 35.8762C7.01667 36.1282 7.12812 36.3755 7.32187 36.5537L10.2687 39.2639C10.4676 39.4377 10.7314 39.5347 11.0057 39.5347C11.28 39.5347 11.5439 39.4377 11.7427 39.2639L15.0531 36.2173C15.1493 36.1278 15.2638 36.0569 15.3901 36.0085C15.5163 35.9601 15.6518 35.9353 15.7885 35.9356Z" fill="black"/>
<path d="M25 32.5833C19.2563 32.5833 14.5834 28.2842 14.5834 23C14.5834 17.7157 19.2563 13.4167 25 13.4167C30.7438 13.4167 35.4167 17.7157 35.4167 23C35.4167 28.2842 30.7448 32.5833 25 32.5833ZM25 15.3333C20.4052 15.3333 16.6667 18.7728 16.6667 23C16.6667 27.2272 20.4052 30.6667 25 30.6667C29.5948 30.6667 33.3334 27.2272 33.3334 23C33.3334 18.7728 29.5959 15.3333 25 15.3333Z" fill="black"/>
</g>
<defs>
<clipPath id="clip0_258_708">
<rect width="50" height="46" fill="white"/>
</clipPath>
</defs>
</svg>
